<svg xmlns="http://www.w3.org/2000/svg" xmlns:xlink="http://www.w3.org/1999/xlink" width="300" zoomAndPan="magnify" viewBox="0 0 224.87999 83.04" height="100" preserveAspectRatio="xMidYMid meet" version="1.0"><defs><g/><clipPath id="f2ead43a7f"><path d="M 15.097656 4.121094 L 90.722656 4.121094 L 90.722656 58.984375 L 15.097656 58.984375 Z M 15.097656 4.121094 " clip-rule="nonzero"/></clipPath></defs><path fill="#d9d9d9" d="M 47.273438 29.417969 C 47.273438 29.445312 47.269531 29.476562 47.269531 29.507812 L 47.269531 38.304688 L 37.476562 38.304688 C 32.632812 38.304688 28.0625 36.039062 25.132812 32.179688 L 23.578125 30.136719 C 23.355469 29.839844 23.566406 29.417969 23.933594 29.417969 L 47.273438 29.417969 " fill-opacity="1" fill-rule="nonzero"/><path fill="#d9d9d9" d="M 47.335938 40.667969 C 47.339844 40.726562 47.34375 40.789062 47.351562 40.847656 C 47.601562 43.972656 48.453125 46.898438 49.878906 49.554688 L 45.289062 49.554688 C 40.570312 49.554688 36.125 47.347656 33.269531 43.59375 L 31.40625 41.136719 C 31.261719 40.945312 31.398438 40.667969 31.640625 40.667969 L 47.335938 40.667969 " fill-opacity="1" fill-rule="nonzero"/><g clip-path="url(#f2ead43a7f)"><path fill="#d9d9d9" d="M 84.589844 24.027344 C 80.558594 19.996094 75.6875 17.980469 69.984375 17.980469 L 58.269531 17.980469 C 58.222656 17.980469 58.183594 17.941406 58.183594 17.890625 L 58.183594 4.210938 C 58.183594 4.160156 58.144531 4.121094 58.09375 4.121094 L 49.417969 4.121094 C 49.371094 4.121094 49.328125 4.160156 49.328125 4.210938 L 49.328125 17.890625 C 49.328125 17.941406 49.289062 17.980469 49.242188 17.980469 L 15.863281 17.980469 C 15.390625 17.980469 15.121094 18.523438 15.40625 18.898438 L 18.625 23.136719 C 20.410156 25.484375 23.195312 26.867188 26.144531 26.867188 L 69.046875 26.867188 C 69.355469 26.84375 69.667969 26.832031 69.984375 26.832031 C 72.695312 26.832031 75.074219 27.625 77.121094 29.214844 C 77.136719 29.226562 78.28125 30.230469 78.335938 30.285156 C 80.636719 32.585938 81.789062 35.371094 81.789062 38.636719 C 81.789062 39.269531 81.746094 39.882812 81.65625 40.480469 C 81.300781 42.964844 80.191406 45.132812 78.335938 46.984375 C 77.316406 48.007812 76.199219 48.800781 74.988281 49.367188 C 73.46875 50.082031 71.800781 50.4375 69.984375 50.4375 C 68.167969 50.4375 66.5 50.082031 64.980469 49.367188 C 63.769531 48.800781 62.65625 48.007812 61.632812 46.984375 C 59.777344 45.132812 58.671875 42.964844 58.3125 40.480469 C 58.226562 39.882812 58.183594 39.269531 58.183594 38.636719 C 58.183594 38.460938 58.183594 38.289062 58.195312 38.117188 C 58.308594 35.074219 59.457031 32.464844 61.632812 30.285156 L 61.644531 30.273438 C 62.03125 29.886719 61.765625 29.230469 61.222656 29.230469 L 49.417969 29.230469 C 49.371094 29.230469 49.328125 29.269531 49.328125 29.320312 L 49.328125 38.636719 C 49.328125 39.261719 49.355469 39.875 49.402344 40.480469 C 49.664062 43.734375 50.625 46.695312 52.28125 49.367188 C 53.132812 50.734375 54.164062 52.027344 55.378906 53.242188 C 59.410156 57.273438 64.28125 59.292969 69.984375 59.292969 C 75.6875 59.292969 80.558594 57.273438 84.589844 53.242188 C 88.621094 49.210938 90.640625 44.339844 90.640625 38.636719 C 90.640625 32.929688 88.621094 28.0625 84.589844 24.027344 " fill-opacity="1" fill-rule="nonzero"/></g><g fill="#d9d9d9" fill-opacity="1"><g transform="translate(90.670882, 50.131073)"><g><path d="M 1.84375 0 L 1.84375 -19.609375 L 8.734375 -19.609375 L 8.734375 -15.65625 C 9.285156 -16.988281 10.050781 -18.050781 11.03125 -18.84375 C 12.007812 -19.644531 13.3125 -20.007812 14.9375 -19.9375 L 14.9375 -12.6875 L 14.359375 -12.6875 C 12.566406 -12.6875 11.179688 -12.15625 10.203125 -11.09375 C 9.222656 -10.03125 8.734375 -8.375 8.734375 -6.125 L 8.734375 0 Z M 1.84375 0 "/></g></g></g><g fill="#d9d9d9" fill-opacity="1"><g transform="translate(105.826082, 50.131073)"><g><path d="M 11.859375 0.46875 C 10.304688 0.46875 8.863281 0.195312 7.53125 -0.34375 C 6.207031 -0.882812 5.070312 -1.613281 4.125 -2.53125 C 3.1875 -3.457031 2.445312 -4.539062 1.90625 -5.78125 C 1.363281 -7.03125 1.09375 -8.34375 1.09375 -9.71875 L 1.09375 -9.78125 C 1.09375 -11.164062 1.363281 -12.484375 1.90625 -13.734375 C 2.445312 -14.992188 3.191406 -16.085938 4.140625 -17.015625 C 5.097656 -17.953125 6.238281 -18.691406 7.5625 -19.234375 C 8.894531 -19.773438 10.347656 -20.046875 11.921875 -20.046875 C 13.492188 -20.046875 14.9375 -19.773438 16.25 -19.234375 C 17.570312 -18.691406 18.707031 -17.957031 19.65625 -17.03125 C 20.613281 -16.113281 21.363281 -15.03125 21.90625 -13.78125 C 22.457031 -12.539062 22.734375 -11.234375 22.734375 -9.859375 L 22.734375 -9.78125 C 22.734375 -8.40625 22.457031 -7.085938 21.90625 -5.828125 C 21.363281 -4.578125 20.613281 -3.484375 19.65625 -2.546875 C 18.707031 -1.617188 17.5625 -0.882812 16.21875 -0.34375 C 14.875 0.195312 13.421875 0.46875 11.859375 0.46875 Z M 11.921875 -5.359375 C 13.160156 -5.359375 14.160156 -5.785156 14.921875 -6.640625 C 15.679688 -7.503906 16.0625 -8.53125 16.0625 -9.71875 L 16.0625 -9.78125 C 16.0625 -10.988281 15.660156 -12.035156 14.859375 -12.921875 C 14.066406 -13.804688 13.066406 -14.25 11.859375 -14.25 C 10.617188 -14.25 9.625 -13.8125 8.875 -12.9375 C 8.125 -12.070312 7.75 -11.046875 7.75 -9.859375 L 7.75 -9.78125 C 7.75 -8.601562 8.140625 -7.570312 8.921875 -6.6875 C 9.710938 -5.800781 10.710938 -5.359375 11.921875 -5.359375 Z M 11.921875 -5.359375 "/></g></g></g><g fill="#d9d9d9" fill-opacity="1"><g transform="translate(129.61032, 50.131073)"><g><path d="M 1.84375 0 L 1.84375 -19.609375 L 8.734375 -19.609375 L 8.734375 -16.859375 C 9.359375 -17.679688 10.148438 -18.414062 11.109375 -19.0625 C 12.066406 -19.71875 13.234375 -20.046875 14.609375 -20.046875 C 16.679688 -20.046875 18.3125 -19.398438 19.5 -18.109375 C 20.6875 -16.816406 21.28125 -15.054688 21.28125 -12.828125 L 21.28125 0 L 14.421875 0 L 14.421875 -10.625 C 14.421875 -11.707031 14.160156 -12.53125 13.640625 -13.09375 C 13.128906 -13.664062 12.460938 -13.953125 11.640625 -13.953125 C 10.816406 -13.953125 10.125 -13.664062 9.5625 -13.09375 C 9.007812 -12.53125 8.734375 -11.707031 8.734375 -10.625 L 8.734375 0 Z M 1.84375 0 "/></g></g></g><g fill="#d9d9d9" fill-opacity="1"><g transform="translate(152.596921, 50.131073)"><g><path d="M 9.640625 0.40625 C 7.585938 0.40625 5.976562 -0.09375 4.8125 -1.09375 C 3.65625 -2.101562 3.078125 -3.769531 3.078125 -6.09375 L 3.078125 -14.09375 L 0.765625 -14.09375 L 0.765625 -19.609375 L 3.078125 -19.609375 L 3.078125 -24.578125 L 9.9375 -24.578125 L 9.9375 -19.609375 L 14.5 -19.609375 L 14.5 -14.09375 L 9.9375 -14.09375 L 9.9375 -7.4375 C 9.9375 -6.757812 10.09375 -6.257812 10.40625 -5.9375 C 10.71875 -5.625 11.1875 -5.46875 11.8125 -5.46875 C 12.269531 -5.46875 12.71875 -5.53125 13.15625 -5.65625 C 13.59375 -5.78125 14.015625 -5.9375 14.421875 -6.125 L 14.421875 -0.765625 C 13.816406 -0.421875 13.109375 -0.140625 12.296875 0.078125 C 11.492188 0.296875 10.609375 0.40625 9.640625 0.40625 Z M 9.640625 0.40625 "/></g></g></g><g fill="#d9d9d9" fill-opacity="1"><g transform="translate(168.223458, 50.131073)"><g><path d="M 7.46875 0.4375 C 5.601562 0.4375 4.039062 -0.0859375 2.78125 -1.140625 C 1.53125 -2.191406 0.90625 -3.6875 0.90625 -5.625 L 0.90625 -5.6875 C 0.90625 -7.71875 1.609375 -9.253906 3.015625 -10.296875 C 4.429688 -11.335938 6.289062 -11.859375 8.59375 -11.859375 C 9.488281 -11.859375 10.359375 -11.785156 11.203125 -11.640625 C 12.046875 -11.492188 12.742188 -11.3125 13.296875 -11.09375 L 13.296875 -11.421875 C 13.296875 -12.460938 12.96875 -13.257812 12.3125 -13.8125 C 11.664062 -14.363281 10.691406 -14.640625 9.390625 -14.640625 C 8.347656 -14.640625 7.40625 -14.535156 6.5625 -14.328125 C 5.71875 -14.128906 4.847656 -13.875 3.953125 -13.5625 L 2.53125 -18.375 C 3.644531 -18.832031 4.828125 -19.203125 6.078125 -19.484375 C 7.335938 -19.765625 8.800781 -19.90625 10.46875 -19.90625 C 12.21875 -19.90625 13.707031 -19.695312 14.9375 -19.28125 C 16.164062 -18.875 17.164062 -18.285156 17.9375 -17.515625 C 18.6875 -16.785156 19.222656 -15.90625 19.546875 -14.875 C 19.878906 -13.851562 20.046875 -12.65625 20.046875 -11.28125 L 20.046875 0 L 13.265625 0 L 13.265625 -2.0625 C 12.585938 -1.3125 11.769531 -0.707031 10.8125 -0.25 C 9.863281 0.207031 8.75 0.4375 7.46875 0.4375 Z M 9.9375 -3.875 C 10.945312 -3.875 11.769531 -4.171875 12.40625 -4.765625 C 13.050781 -5.359375 13.375 -6.140625 13.375 -7.109375 L 13.375 -8.015625 C 13.007812 -8.160156 12.59375 -8.28125 12.125 -8.375 C 11.65625 -8.46875 11.164062 -8.515625 10.65625 -8.515625 C 9.664062 -8.515625 8.890625 -8.296875 8.328125 -7.859375 C 7.773438 -7.429688 7.5 -6.84375 7.5 -6.09375 L 7.5 -6.015625 C 7.5 -5.335938 7.726562 -4.8125 8.1875 -4.4375 C 8.644531 -4.0625 9.226562 -3.875 9.9375 -3.875 Z M 9.9375 -3.875 "/></g></g></g></svg>