<svg xmlns="http://www.w3.org/2000/svg" xmlns:xlink="http://www.w3.org/1999/xlink" width="500" zoomAndPan="magnify" viewBox="0 0 375 374.999991" height="500" preserveAspectRatio="xMidYMid meet" version="1.0"><defs><clipPath id="08f21d9d5d"><path d="M 38 77.980469 L 337.5 77.980469 L 337.5 296.980469 L 38 296.980469 Z M 38 77.980469 " clip-rule="nonzero"/></clipPath></defs><path fill="#003153" d="M 165.226562 178.425781 C 165.222656 178.542969 165.222656 178.660156 165.222656 178.777344 L 165.222656 213.707031 L 126.332031 213.707031 C 107.09375 213.707031 88.957031 204.710938 77.324219 189.390625 L 71.152344 181.273438 C 70.265625 180.105469 71.101562 178.421875 72.566406 178.425781 L 165.226562 178.425781 " fill-opacity="1" fill-rule="nonzero"/><path fill="#003153" d="M 165.480469 223.09375 C 165.496094 223.332031 165.515625 223.566406 165.535156 223.800781 C 166.53125 236.21875 169.90625 247.824219 175.578125 258.378906 L 157.351562 258.378906 C 138.617188 258.375 120.964844 249.613281 109.636719 234.703125 L 102.234375 224.957031 C 101.65625 224.191406 102.199219 223.09375 103.164062 223.09375 L 165.480469 223.09375 " fill-opacity="1" fill-rule="nonzero"/><g clip-path="url(#08f21d9d5d)"><path fill="#003153" d="M 313.398438 157.03125 C 297.382812 141.019531 278.054688 133.015625 255.40625 133.015625 L 208.894531 133.015625 C 208.703125 133.015625 208.542969 132.859375 208.542969 132.660156 L 208.542969 78.34375 C 208.542969 78.144531 208.386719 77.988281 208.191406 77.988281 L 173.746094 77.988281 C 173.550781 77.988281 173.394531 78.144531 173.394531 78.34375 L 173.394531 132.660156 C 173.394531 132.859375 173.238281 133.015625 173.042969 133.015625 L 40.515625 133.015625 C 38.640625 133.015625 37.574219 135.164062 38.707031 136.660156 L 51.488281 153.484375 C 58.574219 162.816406 69.625 168.296875 81.34375 168.296875 L 251.675781 168.296875 C 252.902344 168.207031 254.144531 168.164062 255.40625 168.164062 C 266.171875 168.164062 275.613281 171.3125 283.738281 177.613281 C 283.796875 177.660156 288.339844 181.644531 288.5625 181.867188 C 297.695312 191.003906 302.269531 202.0625 302.269531 215.019531 C 302.269531 217.539062 302.097656 219.980469 301.75 222.351562 C 300.328125 232.210938 295.929688 240.8125 288.5625 248.175781 C 284.507812 252.230469 280.082031 255.386719 275.273438 257.636719 C 269.242188 260.46875 262.621094 261.882812 255.40625 261.882812 C 248.195312 261.882812 241.570312 260.46875 235.539062 257.636719 C 230.734375 255.386719 226.304688 252.230469 222.25 248.175781 C 214.882812 240.8125 210.484375 232.210938 209.0625 222.351562 C 208.714844 219.980469 208.542969 217.539062 208.542969 215.019531 C 208.542969 214.328125 208.554688 213.648438 208.589844 212.96875 C 209.046875 200.890625 213.597656 190.519531 222.25 181.867188 L 222.296875 181.820312 C 223.828125 180.292969 222.773438 177.683594 220.613281 177.683594 L 173.746094 177.683594 C 173.550781 177.683594 173.394531 177.839844 173.394531 178.035156 L 173.394531 215.019531 C 173.394531 217.507812 173.488281 219.945312 173.679688 222.351562 C 174.71875 235.269531 178.53125 247.027344 185.121094 257.636719 C 188.488281 263.0625 192.585938 268.195312 197.410156 273.019531 C 213.425781 289.023438 232.753906 297.035156 255.40625 297.035156 C 278.054688 297.035156 297.382812 289.023438 313.398438 273.019531 C 329.40625 257.003906 337.414062 237.671875 337.414062 215.019531 C 337.414062 192.371094 329.40625 173.042969 313.398438 157.03125 " fill-opacity="1" fill-rule="nonzero"/></g></svg>